<svg id="Capa_1" enable-background="new 0 0 512 512" height="512" viewBox="0 0 512 512" width="512" xmlns="http://www.w3.org/2000/svg"><g><path d="m438.45 414.5 66.05 30c0 16.57-13.43 30-30 30h-36.05z" fill="#9cbff0"/><path d="m7.5 444.5c0 16.57 13.43 30 30 30h180l38.5-19.25 38.5 19.25h144.624c16.57 0 30-13.43 30-30l-213.124-90z" fill="#c0d4ed"/><path d="m187.5 444.5 68.5-45 68.5 45c0 16.57-13.43 30-30 30h-77c-16.57 0-30-13.43-30-30z" fill="#69a7ff"/><path d="m438.31 338.6c-5.48-8.77-15.09-14.1-25.44-14.1l-156.87-45 213.124 165h35.376z" fill="#c0d4ed"/><path d="m402.934 338.6 9.938 15.9-21.315 22.5 49.441 22.5 28.126 45h-461.624l66.19-105.9c5.48-8.77 15.09-14.1 25.44-14.1l156.87-45 121.494 45c10.35 0 19.96 5.33 25.44 14.1z" fill="#deecff"/><path d="m412.873 354.5h-35.378l-15.938 22.5 44.063 22.5h35.378z" fill="#69a7ff"/><path d="m99.127 354.5-28.125 45h334.618l-28.125-45z" fill="#9cbff0"/><path d="m412.873 37.5h-30v287h30c16.568 0 30-13.431 30-30v-227c0-16.569-13.432-30-30-30z" fill="#404242"/><path d="m412.873 294.5v-15.017l-45-105.991 45-105.991c0-16.569-13.432-30-30-30h-283.745c-16.569 0-30 13.431-30 30v227c0 16.569 13.431 30 30 30h283.745c16.568-.001 30-13.432 30-30.001z" fill="#565959"/><path d="m412.873 67.498-29.993-.019c-.001.005-188.506 106.011-188.506 106.011s188.502 106.009 188.5 106.011c0 0 29.999-.017 29.999-.017-.001-.001-.003-211.982 0-211.986z" fill="#4b88d5"/><path d="m298.426 67.5-21.213 21.213c-5.452 5.426-12.947 8.787-21.213 8.787s-15.761-3.361-21.193-8.787c-.02 0-21.233-21.213-21.233-21.213h-114.447v212h283.745v-212z" fill="#69a7ff"/><circle cx="256" cy="67.5" r="6"/><path d="m420.373 279.5v-212c0-4.143-3.357-7.5-7.5-7.5h-114.447c-1.989 0-3.896.79-5.304 2.196l-21.2 21.201c-4.277 4.258-9.932 6.603-15.922 6.603-5.993 0-11.637-2.342-15.893-6.593-.035-.036-.071-.071-.108-.105-.871-.859-13.054-13.037-21.123-21.105-1.406-1.407-3.313-2.197-5.303-2.197h-114.446c-4.143 0-7.5 3.357-7.5 7.5v91c0 4.143 3.357 7.5 7.5 7.5s7.5-3.357 7.5-7.5v-83.5h103.84l15.715 15.705c1.422 1.421 2.486 2.483 3.361 3.276l-.037.037c7.088 7.082 16.497 10.982 26.494 10.982 9.984 0 19.397-3.896 26.517-10.983l19.015-19.017h103.841v197h-298.746v-83.5c0-4.143-3.357-7.5-7.5-7.5s-7.5 3.357-7.5 7.5v91c0 4.143 3.357 7.5 7.5 7.5h313.746c4.143 0 7.5-3.357 7.5-7.5z"/><path d="m510.86 440.525-66.188-105.901c-2.503-4.004-5.669-7.413-9.301-10.143 9.103-6.848 15.001-17.738 15.001-29.981v-227c0-20.678-16.822-37.5-37.5-37.5h-313.744c-20.678 0-37.5 16.822-37.5 37.5v227c0 12.243 5.898 23.132 15.001 29.98-3.632 2.731-6.799 6.14-9.302 10.145l-66.187 105.9c-.745 1.192-1.14 2.57-1.14 3.975 0 20.678 16.822 37.5 37.5 37.5h437c20.678 0 37.5-16.822 37.5-37.5 0-1.405-.395-2.783-1.14-3.975zm-434.232-146.025v-227c0-12.406 10.094-22.5 22.5-22.5h313.745c12.406 0 22.5 10.094 22.5 22.5v227c0 12.406-10.094 22.5-22.5 22.5h-313.745c-12.406 0-22.5-10.094-22.5-22.5zm3.42 48.075c4.139-6.622 11.271-10.575 19.08-10.575h313.745c7.809 0 14.94 3.953 19.079 10.574l59.016 94.426h-469.936zm-63.74 109.425h164.446c1.129 5.539 3.483 10.637 6.766 15h-150.02c-9.774 0-18.094-6.275-21.192-15zm201.192 15c-9.777 0-18.114-6.271-21.21-15h119.42c-3.096 8.729-11.433 15-21.21 15zm257 0h-150.02c3.282-4.363 5.637-9.461 6.766-15h164.446c-3.098 8.725-11.418 15-21.192 15z"/><path d="m64.442 403.136c1.321 2.385 3.833 3.864 6.56 3.864h369.996c2.727 0 5.238-1.479 6.56-3.864s1.245-5.299-.199-7.61l-28.125-45c-1.371-2.193-3.774-3.525-6.36-3.525h-313.747c-2.586 0-4.989 1.332-6.36 3.525l-28.125 45c-1.445 2.311-1.522 5.225-.2 7.61zm38.842-41.136h305.432l18.75 30h-342.932z"/></g></svg>